<svg xmlns="http://www.w3.org/2000/svg" width="32.723" height="18.039"><path data-name="Path 4877" d="M20.816 15.584a8.5 8.5 0 0 0 .709-1.772l2.212-7.727q.753-2.59-.195-3.545-.84-.864-3.612-.864h-5.636a10.333 10.333 0 0 0-2.961.341 4.333 4.333 0 0 0-2.59 2.091 9.441 9.441 0 0 0-.777 1.977l-2.211 7.723H9.08L.001 18.039h15.252a10.312 10.312 0 0 0 2.961-.341 4.421 4.421 0 0 0 2.6-2.113Zm-4.359-1.772h-5.636l2.2-7.7h7.545l-2.282 1.309Z" fill="#00b1ff" fill-rule="evenodd"/><path data-name="Path 4879" d="M27.13 6.545 32.723 0h-3.717Z" fill="#fff"/></svg>