<svg xmlns="http://www.w3.org/2000/svg" width="14" height="12.65"><path data-name="stadium (1)" d="M14 5.738c0-1.118-1.306-2.055-3.335-2.565v-.541l1.578-.92a.381.381 0 0 0 0-.661l-1.767-1a.381.381 0 0 0-.569.332v2.626a16.151 16.151 0 0 0-2.9-.25 15.814 15.814 0 0 0-3.193.307v-.433l1.578-.92a.381.381 0 0 0 0-.661l-1.767-1a.381.381 0 0 0-.569.332v2.868C1.194 3.776.013 4.676.012 5.74a1.467 1.467 0 0 0 .119.571l1.362 6.041a.381.381 0 0 0 .372.3h10.281a.382.382 0 0 0 .372-.3l1.363-6.042A1.468 1.468 0 0 0 14 5.739Zm-3.335-4.7.621.351-.621.362Zm-6.858 0 .621.351-.621.362ZM7 3.523c3.676 0 6.237 1.17 6.237 2.219a.877.877 0 0 1-.21.531c-1-.991-3.26-1.651-6.027-1.651s-5.03.66-6.027 1.651a.877.877 0 0 1-.21-.531C.763 4.689 3.324 3.52 7 3.52Zm5.456 3.248A10.752 10.752 0 0 1 7 7.96a10.75 10.75 0 0 1-5.456-1.191C2.331 6.028 4.355 5.384 7 5.384s4.669.643 5.456 1.384ZM8.038 11.89H5.962v-.866a1.038 1.038 0 0 1 2.076 0v.866Zm3.8 0H8.801v-.866a1.8 1.8 0 0 0-3.6 0v.866H2.159l-1-4.451h.017a11.427 11.427 0 0 0 5.828 1.286 11.428 11.428 0 0 0 5.828-1.29h.018Z" fill="#6f8caa"/></svg>