<svg xmlns="http://www.w3.org/2000/svg" width="144.116" height="78.342"><g data-name="Group 9707"><path data-name="Path 5391" d="M135.279 75.424S152.985 57.455 138.273 38c-13.053-17.261-28.272-16.081-39.438-9.076-4.756 2.983-18.467.368-30.137-17.2C52.783-12.228-2.383 2.299 7.676 39.15 12.544 56.983-7.138 57.631 2.89 75.457Z" fill="#e1e7ed"/><path data-name="Path 5392" d="M3.572 77.342h131.982" fill="none" stroke="#b9c7d6" stroke-width="2"/><g data-name="search (3)"><path data-name="Path 5393" d="m72.336 49.122 1.673 1.673 1.956 1.946.754.759 3.9-3.9-4.375-4.382Z" fill="#b9c7d6"/><path data-name="Path 5394" d="m84.6 49.569 13.471 13.465a5.593 5.593 0 1 1-7.909 7.911L76.697 57.478Z" fill="#b9c7d6"/><g data-name="Group 8050" fill="#98acc1"><path data-name="Path 5396" d="m76.686 57.479 7.909-7.911-.59-.591a1.959 1.959 0 0 0-2.769 0l-5.143 5.146a1.951 1.951 0 0 0 0 2.764Z"/><path data-name="Path 5397" d="M31.631 29.791a25.284 25.284 0 1 1 25.285 25.288 25.283 25.283 0 0 1-25.285-25.288Z"/></g><path data-name="Path 5398" d="M56.915 52.34a22.547 22.547 0 1 0-22.547-22.547A22.547 22.547 0 0 0 56.915 52.34Z" fill="#d0dae4"/><path data-name="Path 5399" d="M56.916 50.535a20.742 20.742 0 1 0-20.744-20.746 20.742 20.742 0 0 0 20.744 20.746Z" fill="#edeff2"/><path data-name="Path 6426" d="M62.566 10.11a20.742 20.742 0 0 0-10.744 40.07C62.89 53.147 30.195 34.6 62.566 10.11Z" fill="#fff" opacity=".66"/></g><g data-name="Group 9706" opacity=".75"><g data-name="Group 9683"><g data-name="Group 9682"><g data-name="Group 9680" fill="none" stroke="#98acc1" stroke-linecap="round" stroke-width="2"><path data-name="Line 95" d="m45.97 22.66 5.868 5.732"/><path data-name="Line 96" d="m46.038 28.46 5.732-5.868"/></g><g data-name="Group 9681" fill="none" stroke="#98acc1" stroke-linecap="round" stroke-width="2"><path data-name="Line 97" d="m61.335 22.49 5.868 5.732"/><path data-name="Line 98" d="m61.403 28.29 5.732-5.868"/></g><path data-name="Path 6425" d="M56.852 35.126a13.374 13.374 0 0 0-9.962 4.43 1.022 1.022 0 1 0 1.523 1.364 11.373 11.373 0 0 1 16.878 0 1.022 1.022 0 1 0 1.523-1.364 13.376 13.376 0 0 0-9.962-4.43Z" fill="#98acc1"/></g></g></g></g></svg>